<svg class="hero-design" width="965" height="752.454" viewBox="0 0 965 752.454">
  <defs>
    <filter id="Line_3" x="328.166" y="44.548" width="338.669" height="336.743" filterUnits="userSpaceOnUse">
      <feOffset dy="3" input="SourceAlpha"/>
      <feGaussianBlur stdDeviation="3" result="blur"/>
      <feFlood flood-color="red" flood-opacity="0.161"/>
      <feComposite operator="in" in2="blur"/>
      <feComposite in="SourceGraphic"/>
    </filter>
  </defs>
  <rect id="Rectangle_10" data-name="Rectangle 10" width="188" height="171" rx="85.5" transform="translate(319 127)" fill="#910130"/>
  <rect id="Rectangle_5" data-name="Rectangle 5" width="213" height="213" rx="31" transform="translate(213 223)" fill="#fff"/>
  <rect id="Rectangle_8" data-name="Rectangle 8" width="213" height="213" rx="31" transform="translate(0 456)" fill="#ab0239"/>
  <rect id="Rectangle_9" data-name="Rectangle 9" width="213" height="213" rx="31" transform="translate(76 335)" fill="#910130"/>
  <path id="Path_3" data-name="Path 3" d="M1817.926,1011.184l-50.488,50.488h50.488Z" transform="translate(2239.729 1762.355) rotate(180)" fill="#80002a"/>
  <rect id="Rectangle_15" data-name="Rectangle 15" width="140" height="132" rx="66" transform="translate(532 390)" fill="#80002a"/>
  <rect id="Rectangle_16" data-name="Rectangle 16" width="140" height="132" transform="translate(532 135)" fill="#80002a"/>
  <rect id="Rectangle_4" data-name="Rectangle 4" width="213" height="213" rx="31" transform="translate(416)" fill="#80002a"/>
  <rect id="Rectangle_7" data-name="Rectangle 7" width="213" height="213" rx="31" transform="translate(405 456)" fill="#80002a"/>
  <rect id="Rectangle_14" data-name="Rectangle 14" width="177" height="256" rx="31" transform="translate(583 206)" fill="#80002a"/>
  <rect id="Rectangle_6" data-name="Rectangle 6" width="177" height="256" rx="31" transform="translate(629 206)" fill="#ab0239"/>
  <g id="Component_3_1" data-name="Component 3 – 1" transform="translate(657 206)">
    <rect id="Rectangle_11" data-name="Rectangle 11" width="177" height="256" rx="31" fill="#b91e50"/>
  </g>
  <rect id="Rectangle_12" data-name="Rectangle 12" width="177" height="256" rx="31" transform="translate(717 206)" fill="#d86087"/>
  <rect id="Rectangle_13" data-name="Rectangle 13" width="177" height="256" rx="31" transform="translate(788 206)" fill="#fff"/>
  <g transform="matrix(1, 0, 0, 1, 0, 0)" filter="url(#Line_3)" style="mix-blend-mode: color-burn;isolation: isolate">
    <line id="Line_3-2" data-name="Line 3" x1="20" y1="18" transform="translate(487.5 200.92)" fill="none" stroke="#fff" stroke-width="1"/>
  </g>
  <path id="Path_1" data-name="Path 1" d="M1824,499v89.86l85.59,1.2.376-5.032-.485-6.959-.324-5.826-1.457-6.312-2.1-7.606-3.56-9.71-3.075-6.8-3.075-4.693L1892,531.949l-4.046-4.693-3.56-3.722-5.017-4.208-5.664-4.855-7.388-4.325-8.7-3.978-8.216-3.116-10.766-2.72Z" transform="translate(-1403 -373.266)" fill="#fff"/>
  <path id="Path_2" data-name="Path 2" d="M50.908,0,0,49.891H50.908Z" transform="matrix(-0.017, -1, 1, -0.017, 372.809, 752.454)" fill="#fff"/>
</svg>
