<?xml version="1.0" encoding="UTF-8" standalone="no"?>
<svg
   xmlns:dc="http://purl.org/dc/elements/1.1/"
   xmlns:cc="http://creativecommons.org/ns#"
   xmlns:rdf="http://www.w3.org/1999/02/22-rdf-syntax-ns#"
   xmlns:svg="http://www.w3.org/2000/svg"
   xmlns="http://www.w3.org/2000/svg"
   viewBox="0 0 1333.3333 1333.3333"
   height="1333.3333"
   width="1333.3333"
   xml:space="preserve"
   id="svg2"
   version="1.1"><metadata
     id="metadata8"><rdf:RDF><cc:Work
         rdf:about=""><dc:format>image/svg+xml</dc:format><dc:type
           rdf:resource="http://purl.org/dc/dcmitype/StillImage" /></cc:Work></rdf:RDF></metadata><defs
     id="defs6"><clipPath
       id="clipPath20"
       clipPathUnits="userSpaceOnUse"><path
         id="path18"
         d="M 0,1000 H 1000 V 0 H 0 Z" /></clipPath></defs><g
     transform="matrix(1.3333333,0,0,-1.3333333,0,1333.3333)"
     id="g10"><path
       id="path12"
       style="fill:#fab14d;fill-opacity:1;fill-rule:nonzero;stroke:none"
       d="m 39.274,339.25 h 921.45 V 660.751 H 39.274 Z" /><g
       id="g14"><g
         clip-path="url(#clipPath20)"
         id="g16"><g
           transform="translate(868.4746,521.4312)"
           id="g22"><path
             id="path24"
             style="fill:#373535;fill-opacity:1;fill-rule:nonzero;stroke:none"
             d="m 0,0 c -0.67,2.459 -1.626,5.208 -2.439,6.593 0,0 0.456,0.436 1.313,-0.109 0.911,-0.529 6.397,-4.226 6.397,-4.226 2.814,-4.06 4.538,-20.648 4.664,-26.602 -2.578,1.201 -6.299,3.202 -8.675,5.425 z m -16.68,15.406 c -4.543,4.898 -8.312,9.45 -11.998,14.875 2.377,4.445 4.132,16.261 3.016,20.813 -0.465,1.403 -4.328,6.502 -4.963,7.23 -0.982,0.965 -4.109,4.48 -5.637,4.48 -0.308,0 -0.631,-0.109 -0.773,-0.219 l 0.465,-3.933 c -4.226,-2.64 -9.743,-6.282 -14.723,-9.869 0,-1.403 0.139,-3.533 0.21,-4.28 0.764,-0.618 1.599,-1.148 2.595,-1.473 1.957,0.325 8.018,1.82 9.631,1.601 l -5.946,-8.831 -6.816,-4.771 -8.568,2.658 c -0.501,0.074 -1.049,0 -1.403,-0.436 l -6.249,-6.684 c -0.307,-0.308 -0.554,-0.654 -0.554,-1.383 l -0.21,-7.558 c 0,0 -0.088,-1.146 -0.088,-2.438 0,-5.41 2.483,-7.94 2.483,-7.94 l 4.101,5.827 c -0.523,0.837 -1.515,3.187 -1.751,4.243 0,0.219 0.111,6.481 0.111,6.481 l 4.003,2.877 10.608,-7.337 c 0,0 2.912,-5.299 5.744,-8.505 C -41.578,8.612 -32.358,2.568 -27.94,0 c 0.446,-2.332 1.42,-6.173 2.174,-8.157 l 12.977,-13.092 -7.678,-9.469 c -2.703,-1.694 -5.299,-4.772 -5.088,-7.648 h 8.875 l 0.975,5.007 10.582,11.581 c 0.545,0.636 0.545,0.947 0.263,1.894 l -3.051,9.979 c 1.497,1.748 4.753,5.972 4.753,11.089 0,9.215 -10.305,11.563 -13.522,14.222 m -47.836,19.009 c -0.281,-0.109 -8.191,-2.22 -8.191,-2.22 0,0 -3.699,-1.384 -5.307,-2.441 -1.631,-1.074 -3.498,-2.877 -3.551,-3.841 l 7,-1.586 c 1.102,1.166 2.268,2.441 3.358,3.278 l 1.64,0.746 5.82,5.845 c 0,0 -0.21,0.328 -0.769,0.219 m 33.216,-59.707 9.962,9.359 4.113,-4.043 -10.715,-8.938 c -0.858,-1.058 -1.474,-2.752 -2.05,-3.828 h -7.911 c 0.446,2.899 4.587,6.486 6.601,7.45 M 21.615,-45.066 H -84.089 v 3.386 H 21.615 Z" /></g><g
           transform="translate(294.3223,410.9023)"
           id="g26"><path
             id="path28"
             style="fill:#373535;fill-opacity:1;fill-rule:nonzero;stroke:none"
             d="m 0,0 v 31.867 h 10.58 v 4.221 H -16.262 V 31.867 H -5.709 V 0 Z m 22.187,32.613 c 0,3.02 -0.4,3.475 -2.439,3.475 H 16.815 V 0 h 5.372 v 20.32 c 2.231,1.291 5.027,2.676 8.02,2.676 2.605,0 4.181,-0.93 4.181,-4.262 V 0 h 5.324 v 19.94 c 0,5.897 -3.175,7.447 -7.046,7.447 -4.014,0 -7.811,-1.769 -10.479,-3.824 z M 70.65,12.472 c 0,0.218 0.056,1.13 0.056,1.858 0,8.867 -4.279,13.057 -11.5,13.057 -7.183,0 -12.545,-5.356 -12.545,-13.968 0,-8.487 4.67,-13.749 13.101,-13.749 5.108,0 8.085,1.456 10.097,2.787 V 6.115 H 68.11 C 66.427,4.789 64.003,3.623 60.473,3.623 c -5.109,0 -8.059,2.475 -8.323,8.849 z m -11.444,11.31 c 3.752,0 6.093,-2.023 6.191,-7.831 H 52.26 c 0.545,5.736 3.368,7.831 6.946,7.831 M 97.099,0 v 15.531 h 12.893 v 4.151 H 97.099 v 12.074 h 16.954 v 4.332 H 91.437 V 0 Z m 30.966,3.771 c -2.53,0 -4.244,0.817 -4.244,4.279 v 18.917 h -5.353 V 6.866 c 0,-5.481 3.214,-7.25 7.511,-7.25 3.598,0 7.176,1.51 9.896,3.422 C 136.041,0.398 136.595,0 137.816,0 h 3.36 V 26.967 H 135.84 V 6.316 c -2.176,-1.254 -4.989,-2.545 -7.775,-2.545 m 20.056,19.479 h 3.297 V 6.647 c 0,-5.047 2.758,-6.977 7.439,-6.977 1.857,0 3.342,0.277 4.351,0.55 v 3.385 h -2.447 c -2.725,0 -3.972,0.818 -3.972,3.641 V 23.25 h 6.129 v 3.717 h -6.129 v 7.321 h -5.371 v -7.321 h -3.297 z M 179.479,3.771 c -2.522,0 -4.252,0.817 -4.252,4.279 v 18.917 h -5.336 V 6.866 c 0,-5.481 3.178,-7.25 7.475,-7.25 3.652,0 7.165,1.51 9.952,3.422 C 187.437,0.398 187.981,0 189.23,0 h 3.395 v 26.967 h -5.354 V 6.316 c -2.202,-1.254 -5.007,-2.545 -7.792,-2.545 m 35.782,18.953 c 0.17,0 1.157,-0.072 1.157,-0.072 v 4.369 c -0.26,0.111 -0.814,0.201 -1.447,0.201 -3.417,0 -6.031,-1.894 -7.877,-3.972 -0.102,3.154 -0.684,3.717 -1.995,3.717 h -3.332 V 0 h 5.327 v 19.682 c 1.718,1.496 4.396,3.042 8.167,3.042 m 29.235,-10.252 c 0,0.218 0.036,1.13 0.036,1.858 0,8.867 -4.253,13.057 -11.528,13.057 -7.121,0 -12.49,-5.356 -12.49,-13.968 0,-8.487 4.659,-13.749 13.048,-13.749 5.15,0 8.129,1.456 10.13,2.787 v 3.658 h -1.719 c -1.694,-1.326 -4.123,-2.492 -7.629,-2.492 -5.137,0 -8.076,2.475 -8.367,8.849 z m -11.492,11.31 c 3.796,0 6.101,-2.023 6.248,-7.831 h -13.15 c 0.594,5.736 3.35,7.831 6.902,7.831 M 270.123,0 v 22.942 c 0,3.386 -0.219,4.025 -2.322,4.025 h -3.02 V 0 Z m -2.586,29.955 c 1.666,0 3.153,1.345 3.153,3.002 0,1.693 -1.487,3.078 -3.153,3.078 -1.702,0 -3.158,-1.385 -3.158,-3.078 0,-1.657 1.456,-3.002 3.158,-3.002 m 14.986,-2.988 h -3.341 V 0 h 5.347 v 20.32 c 2.264,1.291 5.096,2.676 8.058,2.676 2.608,0 4.132,-0.93 4.132,-4.262 V 0 h 5.383 v 19.94 c 0,5.897 -3.199,7.447 -7.077,7.447 -4.015,0 -7.794,-1.769 -10.496,-3.824 -0.103,2.841 -0.693,3.404 -2.006,3.404 M 324.352,0 h 4.707 v 29.441 h 0.254 L 339.663,0 h 3.578 l 10.538,29.441 h 0.125 V 0 h 5.664 V 36.088 H 351.8 L 342.107,8.702 h -0.103 l -9.725,27.386 h -7.927 z m 55.437,-0.33 c 7.438,0 13.119,5.173 13.119,13.749 0,8.612 -5.681,13.968 -13.119,13.968 -7.477,0 -13.145,-5.356 -13.145,-13.968 0,-8.576 5.668,-13.749 13.145,-13.749 m 0,3.953 c -4.637,0 -7.7,3.261 -7.7,9.796 0,6.481 3.063,9.997 7.7,9.997 4.682,0 7.666,-3.516 7.666,-9.997 0,-6.535 -2.984,-9.796 -7.666,-9.796 m 17.225,19.627 h 3.305 V 6.647 c 0,-5.047 2.77,-6.977 7.402,-6.977 1.858,0 3.39,0.277 4.39,0.55 v 3.385 h -2.496 c -2.712,0 -3.913,0.818 -3.913,3.641 V 23.25 h 6.097 v 3.717 h -6.097 v 7.321 h -5.383 v -7.321 h -3.305 z M 425.548,0 v 22.942 c 0,3.386 -0.263,4.025 -2.35,4.025 h -2.974 V 0 Z m -2.577,29.955 c 1.657,0 3.113,1.345 3.113,3.002 0,1.693 -1.456,3.078 -3.113,3.078 -1.702,0 -3.176,-1.385 -3.176,-3.078 0,-1.657 1.474,-3.002 3.176,-3.002 M 445.814,-0.33 c 7.469,0 13.137,5.173 13.137,13.749 0,8.612 -5.668,13.968 -13.137,13.968 -7.428,0 -13.101,-5.356 -13.101,-13.968 0,-8.576 5.673,-13.749 13.101,-13.749 m 0,3.953 c -4.57,0 -7.621,3.261 -7.621,9.796 0,6.481 3.051,9.997 7.621,9.997 4.708,0 7.688,-3.516 7.688,-9.997 0,-6.535 -2.98,-9.796 -7.688,-9.796 m 23.518,23.344 h -3.35 V 0 h 5.352 v 20.32 c 2.269,1.291 5.029,2.676 8.014,2.676 2.613,0 4.144,-0.93 4.144,-4.262 V 0 h 5.388 v 19.94 c 0,5.897 -3.23,7.447 -7.058,7.447 -4.047,0 -7.8,-1.769 -10.488,-3.824 -0.125,2.841 -0.688,3.404 -2.002,3.404" /></g><g
           transform="translate(367.9697,479.3486)"
           id="g30"><path
             id="path32"
             style="fill:#373535;fill-opacity:1;fill-rule:nonzero;stroke:none"
             d="M 0,0 V 6.83 H 6.754 V 65.918 H 0 v 6.611 H 30.053 V 6.83 h 6.839 V 0 Z m 353.933,8.706 h -0.348 c -4.297,-5.99 -10.051,-10.051 -18.899,-10.051 -12.03,0 -19.539,10.158 -19.539,22.197 0,14.53 10.498,23.761 27.257,23.761 6.884,0 10.489,-1.509 10.489,-1.509 v 4.569 c 0,8.795 -5.499,13.456 -13.567,13.456 -11.153,0 -16.942,-8.484 -16.942,-8.484 l -4.043,4.897 c 7.384,11.291 18.757,16.39 29.383,16.39 17.88,0 28.494,-10.435 28.494,-26.259 V 6.83 h 7.55 V 0 h -29.835 z m -1.04,27.203 c -0.635,0.693 -2.082,1.566 -5.052,1.566 -6.965,0 -8.515,-6.754 -8.515,-13.693 0,-6.845 2.113,-12.383 8.068,-12.383 2.859,0 4.619,1.22 5.499,2.167 z M 415.259,6.83 h 9.05 V 0 h -32.367 v 92.724 h -8.086 v 6.59 h 31.403 z M -15.853,65.918 V 12.257 c 0,-3.662 2.432,-4.552 4.752,-4.552 2.196,0 4.316,0.765 4.316,0.765 V 1.841 c 0,0 -4.443,-2.694 -14.274,-2.694 -11.491,0 -18.218,5.516 -18.218,17.243 v 49.528 h -7.849 v 4.844 c 8.74,6.848 18.873,14.676 26.967,21.287 h 4.306 v -19.52 h 9.068 V 65.918 Z M 4.288,91.759 c 0,-6.466 5.881,-10.672 14.258,-10.672 8.403,0 14.286,4.206 14.286,10.672 0,6.372 -5.883,10.615 -14.286,10.615 -8.377,0 -14.258,-4.243 -14.258,-10.615 m -83.6,-42.047 c 0,6.519 -2.075,11.618 -7.839,11.618 -5.771,0 -8.065,-5.099 -8.065,-11.618 V 6.83 h 6.736 V 0 h -36.892 v 6.83 h 6.821 v 59.088 h -6.821 v 6.611 h 29.044 V 61.44 h 0.337 c 2.749,6.081 9.168,12.492 19.465,12.492 10.827,0 17.445,-6.52 19.54,-15.097 0.755,-3.35 1.009,-8.886 1.009,-11.727 V 6.83 h 8.851 V 0 H -79.312 Z M -205.82,36.255 c 0,-21.921 13.666,-39.731 37.119,-39.731 23.409,0 37.138,17.81 37.138,39.731 0,21.944 -13.729,39.733 -37.138,39.733 -23.453,0 -37.119,-17.789 -37.119,-39.733 m 27.368,0.237 c 0,22.143 2.086,31.903 9.751,31.903 7.585,0 9.743,-9.76 9.743,-31.903 0,-22.158 -2.158,-31.923 -9.743,-31.923 -7.665,0 -9.751,9.765 -9.751,31.923 m 325.81,3.696 c 0,19.083 1.545,26.259 8.183,26.259 6.723,0 8.067,-6.957 8.295,-26.259 z m 33.778,-20.884 c -3.279,-3.808 -8.433,-6.685 -16.197,-6.685 -6.731,0 -17.134,3.66 -17.581,20.523 h 39.447 c 0.121,1.275 0.232,3.898 0.232,5.171 0,20.431 -8.514,35.619 -30.724,35.619 -22.34,0 -33.702,-16.828 -33.702,-37.768 0,-20.976 11.362,-37.509 33.702,-37.509 14.362,0 23.43,6.665 28.727,17.077 z m -340.34,90.863 c 0,0 17.771,-17.443 26.031,-26.476 v -6.829 c -7.685,7.922 -23.501,14.551 -38.185,14.551 -33.279,0 -54.128,-24.658 -54.128,-55.158 0,-30.372 19.766,-55.029 54.128,-55.029 17.143,0 30.828,7.924 38.448,16.063 v -6.522 c -10.379,-13.999 -29.381,-23.125 -53.062,-23.125 -42.308,0 -71.481,30.192 -71.481,68.613 0,38.44 32.385,68.522 71.481,68.522 9.979,0 18.919,-1.639 26.768,-4.37 z M 301.425,65.918 V 12.257 c 0,-3.662 2.412,-4.552 4.735,-4.552 2.211,0 4.333,0.765 4.333,0.765 V 1.841 c 0,0 -4.431,-2.694 -14.276,-2.694 -11.462,0 -18.216,5.516 -18.216,17.243 v 49.528 h -7.897 v 4.844 c 8.768,6.848 18.92,14.676 26.997,21.287 h 4.324 v -19.52 h 11.262 V 65.918 Z M 88.896,49.712 c 0,6.519 -2.093,11.618 -7.849,11.618 -5.744,0 -8.029,-5.099 -8.029,-11.618 V 6.83 h 6.691 V 0 H 42.817 v 6.83 h 6.866 v 59.088 h -6.866 v 6.611 H 71.861 V 61.44 h 0.355 c 2.752,6.081 9.141,12.492 19.422,12.492 10.823,0 17.497,-6.52 19.574,-15.097 0.802,-3.35 0.982,-8.886 0.982,-11.727 V 6.83 h 8.869 V 0 H 88.896 Z m 149.05,0 c 0,6.519 -2.072,11.618 -7.808,11.618 -5.767,0 -8.049,-5.099 -8.049,-11.618 V 6.83 h 6.709 V 0 h -36.91 v 6.83 h 6.857 v 59.088 h -6.857 v 6.611 h 29.026 V 61.44 h 0.353 c 2.796,6.081 9.188,12.492 19.494,12.492 10.801,0 17.442,-6.52 19.519,-15.097 0.805,-3.35 1.032,-8.886 1.032,-11.727 V 6.83 h 8.792 V 0 h -32.158 z" /></g></g></g></g></svg>