<?xml version="1.0" encoding="UTF-8" standalone="no"?>
<svg
   version="1.1"
   width="199.9998"
   height="199.9998"
   id="svg9"
   viewBox="0 0 199.9998 199.9998"
   sodipodi:docname="continental-seeklogo.com.cdr"
   xmlns:inkscape="http://www.inkscape.org/namespaces/inkscape"
   xmlns:sodipodi="http://sodipodi.sourceforge.net/DTD/sodipodi-0.dtd"
   xmlns="http://www.w3.org/2000/svg"
   xmlns:svg="http://www.w3.org/2000/svg">
  <defs
     id="defs13" />
  <sodipodi:namedview
     id="namedview11"
     pagecolor="#ffffff"
     bordercolor="#666666"
     borderopacity="1.0"
     inkscape:pageshadow="2"
     inkscape:pageopacity="0.0"
     inkscape:pagecheckerboard="0" />
  <path
     d="M 1e-4,1e-4 V 199.9997 H 199.9997 V 1e-4 Z"
     style="fill:none"
     id="path2" />
  <g
     id="Layer1000">
    <path
       d="m 186.6709,98.3367 c -0.1518,-0.5839 -0.3806,-1.2451 -0.558,-1.5748 0,0 0.1009,-0.103 0.3054,0.0252 0.202,0.1259 1.4983,1.0163 1.4983,1.0163 0.6603,0.9657 1.0674,4.9298 1.0933,6.3531 -0.6106,-0.2812 -1.4739,-0.7642 -2.034,-1.2975 z m -3.9129,-3.685 c -1.0666,-1.1693 -1.9567,-2.2614 -2.8209,-3.5568 0.5589,-1.0686 0.9663,-3.8882 0.7116,-4.98 -0.1009,-0.3319 -1.016,-1.5517 -1.1695,-1.7281 -0.228,-0.231 -0.9654,-1.0687 -1.3213,-1.0687 -0.0762,0 -0.1515,0.0253 -0.1783,0.0506 l 0.1021,0.9404 c -0.9913,0.6362 -2.2866,1.4992 -3.4562,2.3643 0,0.3294 0.0256,0.8377 0.0506,1.016 0.1783,0.1511 0.3815,0.2794 0.6104,0.355 0.4571,-0.0756 1.8804,-0.4327 2.2619,-0.38 l -1.3974,2.1077 -1.6016,1.1443 -2.0072,-0.636 c -0.1268,-0.0253 -0.2548,0 -0.33,0.103 l -1.4749,1.5998 c -0.0762,0.0756 -0.1268,0.1533 -0.1268,0.3315 l -0.0506,1.8037 c 0,0 -0.0259,0.2794 -0.0259,0.5838 0,1.2954 0.5848,1.9064 0.5848,1.9064 l 0.9654,-1.3984 c -0.1268,-0.2014 -0.3559,-0.7621 -0.4062,-1.0162 0,-0.0503 0.0256,-1.5496 0.0256,-1.5496 l 0.9397,-0.6865 2.4908,1.7534 c 0,0 0.6856,1.2701 1.3469,2.0343 0.4321,0.5333 2.5917,1.9798 3.6335,2.5911 0.1021,0.5582 0.3309,1.4739 0.5083,1.9566 l 3.0499,3.1264 -1.8039,2.2611 c -0.6354,0.4052 -1.246,1.1445 -1.1954,1.8289 h 2.0846 l 0.2288,-1.1948 2.4908,-2.7693 c 0.1268,-0.1533 0.1268,-0.2289 0.0506,-0.4577 l -0.7118,-2.3872 c 0.3559,-0.4074 1.118,-1.4237 1.118,-2.6435 0,-2.2107 -2.4143,-2.7693 -3.1767,-3.4055 z M 171.5253,90.104 c -0.0765,0.0253 -1.9319,0.5332 -1.9319,0.5332 3e-4,0 -0.8642,0.3298 -1.2457,0.5839 -0.3806,0.2538 -0.8127,0.6865 -0.8377,0.9154 l 1.6525,0.38 c 0.2535,-0.2792 0.533,-0.5836 0.7868,-0.7874 l 0.3818,-0.1783 1.3728,-1.3962 c 0,0 -0.0518,-0.0759 -0.1786,-0.0506 z m 7.8024,14.2793 2.3378,-2.2361 0.9654,0.966 -2.5164,2.1352 c -0.2033,0.2541 -0.3547,0.6612 -0.4818,0.9154 h -1.8563 c 0.102,-0.6866 1.0683,-1.5496 1.551,-1.7805 z m 12.4269,4.7283 h -24.8291 v -0.8145 h 24.8291 z"
       style="fill:#f9ab03;fill-rule:evenodd"
       id="path4" />
    <path
       d="m 67.4455,109.1116 v -1.6019 h 1.551 V 93.686 h -1.551 v -1.5495 h 6.9129 v 15.3732 h 1.5757 v 1.6019 z m 81.3857,-2.0346 h -0.0765 c -0.991,1.3984 -2.3122,2.3391 -4.3463,2.3391 -2.7699,0 -4.4977,-2.3641 -4.4977,-5.1861 0,-3.4035 2.4147,-5.5639 6.277,-5.5639 1.576,0 2.4143,0.3571 2.4143,0.3571 v -1.0687 c 0,-2.0578 -1.2704,-3.1517 -3.1249,-3.1517 -2.567,0 -3.8892,1.9843 -3.8892,1.9843 l -0.9397,-1.1445 c 1.7028,-2.6435 4.3194,-3.838 6.7596,-3.838 4.1174,0 6.5564,2.4396 6.5564,6.1499 v 9.5552 h 1.7275 v 1.6019 h -6.8605 z m -0.2292,-6.3784 c -0.1523,-0.1512 -0.4827,-0.3547 -1.1683,-0.3547 -1.6007,0 -1.9566,1.5766 -1.9566,3.2017 0,1.6019 0.4827,2.8976 1.8545,2.8976 0.661,0 1.0675,-0.2816 1.2704,-0.5083 z m 14.3329,6.8111 h 2.0846 v 1.6019 H 157.573 V 87.4081 h -1.8545 v -1.5495 h 7.2164 z M 63.7989,93.686 v 12.5533 c 0,0.863 0.5586,1.0665 1.0924,1.0665 0.508,0 0.991,-0.1761 0.991,-0.1761 v 1.5495 c 0,0 -1.0163,0.6339 -3.2779,0.6339 -2.6435,0 -4.1942,-1.2954 -4.1942,-4.0394 l 3e-4,-11.5877 h -1.8049 v -1.1442 c 2.0088,-1.6001 4.3472,-3.4309 6.2017,-4.9804 h 0.9916 v 4.5751 h 2.0834 v 1.5495 z m 4.6379,-6.0491 c 0,1.4993 1.3471,2.4902 3.2785,2.4902 1.9313,0 3.2782,-0.9909 3.2782,-2.4902 0,-1.4992 -1.3469,-2.4898 -3.2782,-2.4898 -1.9314,0 -3.2785,0.9906 -3.2785,2.4898 z M 49.211,97.4716 c 0,-1.5246 -0.483,-2.7191 -1.8043,-2.7191 -1.3216,0 -1.8551,1.1945 -1.8551,2.7191 v 10.0381 h 1.5498 v 1.6019 H 38.614 v -1.6019 h 1.5757 V 93.686 H 38.614 v -1.5495 h 6.6837 v 2.5907 h 0.0756 c 0.636,-1.4233 2.1096,-2.9226 4.4733,-2.9226 2.4908,0 4.0153,1.5246 4.4983,3.5318 0.1777,0.7892 0.2282,2.0846 0.2282,2.744 v 9.4293 h 2.0325 v 1.6019 H 49.211 Z m -29.0982,3.1514 c 0,5.1333 3.1508,9.3013 8.5389,9.3013 5.3872,0 8.5386,-4.168 8.5386,-9.3013 0,-5.1334 -3.1514,-9.3014 -8.5386,-9.3014 -5.3878,0 -8.5389,4.168 -8.5389,9.3014 z m 6.3025,-0.0503 c 0,-5.1839 0.4827,-7.4727 2.2364,-7.4727 1.7537,0 2.236,2.2888 2.236,7.4727 0,5.1836 -0.4823,7.4703 -2.236,7.4703 -1.7537,0 -2.2367,-2.2867 -2.2367,-7.4703 z m 74.9186,-0.8651 c 0,-4.4721 0.3556,-6.1496 1.881,-6.1496 1.5493,0 1.8555,1.6269 1.9061,6.1496 z m 7.7765,4.8795 c -0.7624,0.8901 -1.9566,1.5745 -3.7359,1.5745 -1.551,0 -3.9397,-0.8627 -4.0409,-4.8015 h 9.0731 c 0.0247,-0.3047 0.0506,-0.9157 0.0506,-1.2201 0,-4.7765 -1.9567,-8.3354 -7.065,-8.3354 -5.1333,0 -7.7509,3.941 -7.7509,8.8437 0,4.9045 2.6176,8.7678 7.7509,8.7678 3.3035,0 5.3878,-1.5496 6.6079,-3.9892 z M 30.8375,83.3181 c 0,0 4.0915,4.09 5.9722,6.2002 v 1.5998 c -1.7531,-1.8539 -5.3881,-3.4056 -8.7678,-3.4056 -7.6494,0 -12.4527,5.7699 -12.4527,12.9105 0,7.1156 4.5492,12.8852 12.4527,12.8852 3.9389,0 7.0897,-1.8561 8.8434,-3.7624 v 1.5242 c -2.3893,3.2797 -6.7597,5.4128 -12.1974,5.4128 -9.7337,0 -16.4431,-7.0629 -16.4431,-16.0598 0,-8.9969 7.4462,-16.0345 16.4431,-16.0345 2.2872,-3e-4 4.3453,0.38 6.1496,1.0159 z M 136.7599,93.686 v 12.5533 c 0,0.863 0.5592,1.0665 1.0924,1.0665 0.5083,0 0.991,-0.1761 0.991,-0.1761 v 1.5495 c 0,0 -1.0159,0.6339 -3.2788,0.6339 -2.6422,0 -4.1933,-1.2954 -4.1933,-4.0394 V 93.686 h -1.8027 v -1.1442 c 2.0069,-1.6001 4.345,-3.4309 6.2005,-4.9804 h 0.9909 v 4.5751 h 2.592 v 1.5495 z m -48.8691,3.7856 c 0,-1.5246 -0.483,-2.7191 -1.8043,-2.7191 -1.3215,0 -1.8548,1.1945 -1.8548,2.7191 v 10.0381 h 1.5498 v 1.6019 h -8.488 v -1.6019 h 1.5751 V 93.686 h -1.5751 v -1.5495 h 6.6835 v 2.5907 h 0.0761 c 0.6351,-1.4233 2.1096,-2.9226 4.4727,-2.9226 2.4905,0 4.0154,1.5246 4.4977,3.5318 0.1786,0.7892 0.2295,2.0846 0.2295,2.744 v 9.4293 h 2.0334 v 1.6019 h -7.3956 z m 34.2818,0 c 0,-1.5246 -0.483,-2.7191 -1.804,-2.7191 -1.3221,0 -1.8554,1.1945 -1.8554,2.7191 v 10.0381 h 1.5501 v 1.6019 h -8.488 v -1.6019 h 1.5748 V 93.686 h -1.5748 v -1.5495 h 6.6831 v 2.5907 h 0.0774 c 0.6354,-1.4233 2.1081,-2.9226 4.4718,-2.9226 2.4908,0 4.0153,1.5246 4.498,3.5318 0.1783,0.7892 0.2298,2.0846 0.2298,2.744 v 9.4293 h 2.0331 v 1.6019 h -7.3959 z"
       style="fill:#f9ab03;fill-rule:evenodd"
       id="path6" />
  </g>
</svg>
